<svg width="30" height="30" viewBox="0 0 30 30" xmlns="http://www.w3.org/2000/svg">
<path fill-rule="evenodd" clip-rule="evenodd" d="M15 4.84615C9.39219 4.84615 4.84615 9.39219 4.84615 15C4.84615 20.6078 9.39219 25.1538 15 25.1538C20.6078 25.1538 25.1538 20.6078 25.1538 15C25.1538 9.39219 20.6078 4.84615 15 4.84615ZM3 15C3 8.37258 8.37258 3 15 3C21.6274 3 27 8.37258 27 15C27 21.6274 21.6274 27 15 27C8.37258 27 3 21.6274 3 15ZM11.3077 10.3846C11.8175 10.3846 12.2308 10.7979 12.2308 11.3077V15C12.2308 15.5098 11.8175 15.9231 11.3077 15.9231C10.7979 15.9231 10.3846 15.5098 10.3846 15V11.3077C10.3846 10.7979 10.7979 10.3846 11.3077 10.3846ZM18.6923 10.3846C19.2021 10.3846 19.6154 10.7979 19.6154 11.3077V15C19.6154 15.5098 19.2021 15.9231 18.6923 15.9231C18.1825 15.9231 17.7692 15.5098 17.7692 15V11.3077C17.7692 10.7979 18.1825 10.3846 18.6923 10.3846Z" fill="evenodd"/>
</svg>
