<svg width="20" height="20" viewBox="0 0 20 20" xmlns="http://www.w3.org/2000/svg">
<path fill-rule="evenodd" clip-rule="evenodd" d="M20 10C20 15.5228 15.5228 20 10 20C4.47715 20 0 15.5228 0 10C0 4.47715 4.47715 0 10 0C15.5228 0 20 4.47715 20 10ZM7.28029 14.6582C7.18896 14.1413 7.21126 13.5895 7.35 13.125C7.85 13.7375 8.55 13.925 9.275 14.0375C10.3875 14.2 11.475 14.1375 12.5125 13.6375L12.8625 13.425C12.8862 13.5057 12.9054 13.5874 12.9198 13.6697C12.9878 14.0547 12.9545 14.4524 12.8211 14.823C12.6593 15.2725 12.3586 15.6588 11.9627 15.926L11.2752 16.401C10.6849 16.8015 10.4501 17.2555 10.556 17.8752C10.558 17.8867 10.56 17.8982 10.5622 17.9098C10.5821 18.0142 10.6113 18.1233 10.65 18.2375L10.675 18.325C10.675 18.325 10.6749 18.325 10.6749 18.325L10.6752 18.326C10.3331 18.1856 10.0443 17.9406 9.85017 17.626C9.70155 17.4001 9.60157 17.1471 9.55507 16.883C9.53573 16.7735 9.52559 16.6621 9.525 16.55C9.525 16.3625 9.525 16.175 9.5 15.9875C9.49722 15.9669 9.49413 15.9468 9.49075 15.9272C9.41801 15.5082 9.20649 15.3254 8.81267 15.3135C8.40017 15.301 8.07517 15.5635 7.98767 15.9635L7.96267 16.051C7.60673 15.7274 7.37811 15.2128 7.28029 14.6582ZM4 12.9625C4 12.9625 6.0625 11.9625 8.125 11.9625L9.675 7.175C9.7375 6.925 9.9 6.775 10.0875 6.775C10.2875 6.775 10.4625 6.9375 10.5125 7.175L12.0625 11.9625C14.5125 11.9625 16.1875 12.9625 16.1875 12.9625L12.6875 3.4625C12.5875 3.175 12.4125 3 12.1875 3H8C7.775 3 7.6125 3.175 7.5 3.4625L4 12.9625Z" />
</svg>
