<svg width="512" height="512" viewBox="0 0 512 512" xmlns="http://www.w3.org/2000/svg">
<path d="M322.9 194.4V295.8H294.6V416.3H217.5V295.9H189.2V194.4C189.2 190 190.8 186.2 193.8 183.1C196.9 180 200.7 178.4 205.1 178.4H307C311.1 178.4 314.8 180 318.1 183.1C321.2 186.3 322.9 190 322.9 194.4ZM221.4 130.7C221.4 107.4 232.9 95.7 255.9 95.7C278.9 95.7 290.4 107.4 290.4 130.7C290.4 153.7 278.9 165.2 255.9 165.2C232.9 165.2 221.4 153.7 221.4 130.7ZM255.6 8C397.4 8 504 118.1 504 256C504 403.1 385.5 504 255.6 504C121.6 504 8 394.5 8 256C8 123.1 112.7 8 255.6 8ZM256.4 52.7C138.2 52.7 52.7 150.6 52.7 256C52.7 365.8 143.9 458.8 256.4 458.8C359.6 458.8 459.2 377.7 459.2 256C459.3 142.2 369 52.7 256.4 52.7Z" fill="evenodd"/>
</svg>
