<svg width="50" height="50" viewBox="0 0 50 50" fill="none" xmlns="http://www.w3.org/2000/svg">
<rect width="50" height="50" rx="12" fill="url(#paint0_linear_2142_688)"/>
<g clip-path="url(#clip0_2142_688)">
<path d="M17.7017 13.8765C17.9387 13.7652 18.1972 13.7075 18.459 13.7075C18.7208 13.7075 18.9793 13.7652 19.2163 13.8765C19.5584 14.0527 19.871 14.2811 20.1428 14.5536L23.7065 17.6718H26.2546L29.8183 14.5536C30.0905 14.2816 30.403 14.0532 30.7448 13.8765C30.9979 13.7861 31.268 13.7541 31.5352 13.783C31.8023 13.8118 32.0594 13.9006 32.2874 14.0429C32.5153 14.1851 32.7081 14.3771 32.8514 14.6044C32.9947 14.8317 33.0847 15.0884 33.1147 15.3554C33.1333 15.7877 32.994 16.2121 32.7227 16.5492C32.4742 16.8006 32.2125 17.0385 31.9387 17.262C31.7811 17.4089 31.6145 17.5458 31.4398 17.6718H33.6671C34.6609 17.7038 35.6021 18.1263 36.2864 18.8478C37.0129 19.5303 37.4417 20.4711 37.4803 21.4671V31.7128C37.5064 32.2312 37.4765 32.7509 37.3911 33.263C37.2751 33.7764 37.0577 34.2615 36.7517 34.6899C36.4457 35.1183 36.0574 35.4812 35.6093 35.7576C34.9938 36.1372 34.2833 36.3349 33.5602 36.3278H17.2028C16.6666 36.3551 16.129 36.3253 15.5991 36.2387C15.0917 36.1192 14.6131 35.9002 14.191 35.5943C13.7689 35.2884 13.4117 34.9018 13.1402 34.4568C12.7471 33.8455 12.5369 33.1345 12.5343 32.4077V22.269C12.4886 21.777 12.4886 21.2819 12.5343 20.79C12.6967 19.943 13.1339 19.1731 13.7782 18.5997C14.4224 18.0263 15.2378 17.6813 16.098 17.6183H18.4323C18.0581 17.3511 17.7373 17.0303 17.3988 16.7452C17.1986 16.5613 17.0431 16.334 16.9443 16.0808C16.8454 15.8275 16.8059 15.555 16.8286 15.2841C16.8493 14.9963 16.9395 14.7179 17.0916 14.4727C17.2437 14.2275 17.4531 14.0229 17.7017 13.8765ZM17.2919 20.79C16.9599 20.8488 16.6514 21.0005 16.4022 21.2276C16.1531 21.4547 15.9734 21.7478 15.8842 22.073C15.8523 22.2975 15.8523 22.5255 15.8842 22.7501V31.1782C15.8651 31.569 15.9751 31.9552 16.1973 32.2773C16.4195 32.5993 16.7415 32.8392 17.1137 32.9601C17.3604 33.0438 17.6193 33.0859 17.8799 33.0848H32.3663C32.7211 33.0981 33.0718 33.0052 33.3734 32.8179C33.675 32.6306 33.9137 32.3574 34.059 32.0335C34.2124 31.6616 34.2735 31.2581 34.2372 30.8575V23.0174C34.2782 22.7337 34.2782 22.4457 34.2372 22.1621C34.1584 21.8806 34.0115 21.6228 33.8095 21.4115C33.6075 21.2002 33.3567 21.0419 33.079 20.9504C32.7248 20.8251 32.3495 20.7706 31.9743 20.79H18.1293C17.8505 20.7704 17.5707 20.7704 17.2919 20.79Z" fill="white"/>
<path d="M20.2135 23.5696C20.6602 23.547 21.0991 23.6933 21.4429 23.9794C21.634 24.1427 21.7884 24.3447 21.8959 24.5719C22.0034 24.7992 22.0615 25.0466 22.0666 25.298V27.0798C22.0826 27.4896 21.9567 27.8924 21.7102 28.2202C21.5294 28.4444 21.2969 28.6215 21.0327 28.7362C20.7685 28.8509 20.4804 28.8999 20.1931 28.8788C19.9058 28.8578 19.6279 28.7675 19.3832 28.6155C19.1385 28.4636 18.9342 28.2545 18.788 28.0064C18.6027 27.6308 18.5226 27.2121 18.5564 26.7947V25.0129C18.6159 24.6283 18.7996 24.2739 19.0796 24.0036C19.3595 23.7333 19.7202 23.5621 20.1066 23.5161L20.2135 23.5696ZM29.4256 23.5696C29.6611 23.5526 29.8977 23.5827 30.1215 23.658C30.3453 23.7333 30.5519 23.8523 30.7293 24.0082C30.9067 24.164 31.0514 24.3536 31.1549 24.5658C31.2584 24.7781 31.3186 25.0088 31.3322 25.2445V27.0263C31.3609 27.4361 31.2679 27.8453 31.0649 28.2024C30.9013 28.4413 30.6819 28.6367 30.4258 28.7717C30.1696 28.9067 29.8844 28.9773 29.5949 28.9773C29.3054 28.9773 29.0202 28.9067 28.764 28.7717C28.5079 28.6367 28.2885 28.4413 28.1249 28.2024C27.9 27.8208 27.8003 27.3784 27.8398 26.9373V25.1554C27.8847 24.758 28.062 24.3872 28.3432 24.1028C28.6244 23.8184 28.9931 23.6368 29.39 23.5874L29.4256 23.5696Z" fill="white"/>
</g>
<defs>
<linearGradient id="paint0_linear_2142_688" x1="0" y1="0" x2="50" y2="50" gradientUnits="userSpaceOnUse">
<stop stop-color="#FD7FA5"/>
<stop offset="1" stop-color="#FD8F7F"/>
</linearGradient>
<clipPath id="clip0_2142_688">
<rect width="25" height="25" fill="white" transform="translate(12.5 12.5)"/>
</clipPath>
</defs>
</svg>
