<svg width="30" height="30" viewBox="0 0 30 30" xmlns="http://www.w3.org/2000/svg">
<path d="M21.7995 2.62549H8.19912C6.42991 2.62549 4.99902 4.05632 4.99902 5.82556V24.2261C4.99902 25.9928 6.43235 27.4262 8.19912 27.4262H16.1994H17.7994H18.5994C21.5 27.4262 25 24 24.9996 21.0259V5.82556C24.9996 4.05632 23.5663 2.62549 21.7995 2.62549ZM18.1994 25.8261H17.7994V22.6261V21.826C17.7994 21.385 18.1584 21.0259 18.5994 21.0259H19.3995H23.3586C22.9791 23.0082 20.002 25.8261 18.1994 25.8261ZM23.3995 19.426H17.3994C16.8366 19.426 16.1994 20 16.1994 20.6261V21.026V25.8262H8.19912C7.31439 25.8262 6.59913 25.1108 6.59913 24.2262V5.82556C6.59913 4.94086 7.31439 4.22557 8.19912 4.22557H21.7995C22.6842 4.22557 23.3995 4.94083 23.3995 5.82556V19.426ZM16.0729 15.4258H9.99918C9.66843 15.4258 9.39923 15.6952 9.39923 16.0258C9.39923 16.3565 9.66843 16.6259 9.99918 16.6259H16.0729C16.4037 16.6259 16.6729 16.3565 16.6729 16.0258C16.6729 15.6925 16.4037 15.4258 16.0729 15.4258ZM19.7995 11.4257H10.1991C9.75817 11.4257 9.39923 11.7848 9.39923 12.2257C9.39923 12.6668 9.75817 13.0257 10.1991 13.0257H19.7995C20.2405 13.0257 20.5995 12.6668 20.5995 12.2257C20.5995 11.7822 20.2405 11.4257 19.7995 11.4257ZM19.7995 7.42567H10.1991C9.75817 7.42567 9.39923 7.78465 9.39923 8.2256C9.39923 8.66666 9.75817 9.02564 10.1991 9.02564H19.7995C20.2405 9.02564 20.5995 8.66666 20.5995 8.2256C20.5995 7.78465 20.2405 7.42567 19.7995 7.42567Z" fill="evenodd"/>
</svg>
