<svg width="512" height="512" viewBox="0 0 512 512" xmlns="http://www.w3.org/2000/svg">
<path d="M253.83 214.82L220.61 232.1C211.18 212.52 195.37 212.17 193.15 212.17C171.02 212.17 159.93 226.78 159.93 256.01C159.93 279.58 169.14 299.85 193.15 299.85C207.62 299.85 217.8 292.76 223.72 278.59L254.27 294.09C248.1 305.6 228.58 333.07 189.17 333.07C166.57 333.07 115.21 322.75 115.21 256.02C115.21 197.33 158.21 178.96 187.84 178.96C218.56 178.95 240.54 190.91 253.83 214.82ZM396.88 214.82L364.1 232.1C354.6 212.33 338.38 212.17 336.2 212.17C314.06 212.17 302.98 226.78 302.98 256.01C302.98 279.56 312.21 299.85 336.2 299.85C350.65 299.85 360.85 292.76 366.74 278.59L397.74 294.09C395.64 297.84 376.35 333.07 332.65 333.07C309.96 333.07 258.69 323.2 258.69 256.02C258.69 197.35 301.66 178.96 331.32 178.96C362.03 178.95 383.9 190.91 396.88 214.82ZM255.56 8C112.74 8 8 123.06 8 256C8 394.49 121.6 504 255.56 504C385.49 504 504 403.13 504 256C504 118.13 397.38 8 255.56 8ZM256.43 458.81C143.89 458.81 52.73 365.77 52.73 256C52.73 150.58 138.16 52.73 256.45 52.73C368.98 52.73 459.27 142.19 459.27 255.99C459.26 377.68 359.59 458.81 256.43 458.81Z" fill="evenodd"/>
</svg>
