<svg width="20" height="20" viewBox="0 0 20 20" xmlns="http://www.w3.org/2000/svg">
<path fill-rule="evenodd" clip-rule="evenodd" d="M10 20C15.5228 20 20 15.5228 20 10C20 4.47715 15.5228 0 10 0C4.47715 0 0 4.47715 0 10C0 15.5228 4.47715 20 10 20ZM12.5078 7.49219C11.125 7.49219 10 8.61719 10 10V7.51562V7.49219H12.5078ZM7.26087 7.50278C5.99726 7.37472 5.00781 6.30464 5.00781 5.00781C5.00781 3.625 6.10938 2.5 7.49219 2.5H10H12.5078C13.8906 2.5 15.0156 3.60156 15.0156 4.98438C15.0156 6.36719 13.8906 7.49219 12.5078 7.49219C13.8906 7.49219 15.0156 8.61719 15.0156 10C15.0156 11.3828 13.8906 12.5078 12.5078 12.5078C11.125 12.5078 10 11.3828 10 10V12.4844V12.5078V14.9922C10 16.375 8.875 17.5 7.49219 17.5C6.10938 17.5 5.00781 16.375 5.00781 14.9922C5.00781 13.6915 6.00318 12.6189 7.27221 12.4961C6.00318 12.3733 5.00781 11.3007 5.00781 10C5.00781 8.69524 5.98853 7.62 7.26087 7.50278Z"/>
</svg>
