<svg width="50" height="50" viewBox="0 0 50 50" fill="none" xmlns="http://www.w3.org/2000/svg">
<rect width="50" height="50" rx="12" fill="#444444"/>
<g clip-path="url(#clip0_3287_697)">
<path d="M25 12.8081C18.097 12.8081 12.5 18.4041 12.5 25.3081C12.5 30.8311 16.0815 35.5166 21.048 37.1691C21.6725 37.2846 21.9025 36.8981 21.9025 36.5676C21.9025 36.2696 21.891 35.2846 21.8855 34.2406C18.408 34.9966 17.674 32.7656 17.674 32.7656C17.1055 31.3211 16.286 30.9366 16.286 30.9366C15.152 30.1606 16.3715 30.1766 16.3715 30.1766C17.6265 30.2646 18.2875 31.4646 18.2875 31.4646C19.4025 33.3756 21.2115 32.8231 21.9255 32.5036C22.0375 31.6956 22.3615 31.1441 22.719 30.8321C19.9425 30.5161 17.024 29.4441 17.024 24.6546C17.024 23.2901 17.5125 22.1746 18.312 21.2996C18.182 20.9846 17.754 19.7136 18.433 17.9916C18.433 17.9916 19.483 17.6561 21.8715 19.2731C22.8685 18.9961 23.938 18.8571 25.0005 18.8521C26.0625 18.8571 27.1325 18.9956 28.1315 19.2731C30.5175 17.6556 31.5655 17.9916 31.5655 17.9916C32.246 19.7136 31.818 20.9846 31.6885 21.2996C32.49 22.1751 32.975 23.2901 32.975 24.6546C32.975 29.4556 30.0505 30.5126 27.267 30.8221C27.7155 31.2101 28.115 31.9706 28.115 33.1366C28.115 34.8091 28.1005 36.1551 28.1005 36.5671C28.1005 36.8996 28.3255 37.2896 28.959 37.1671C33.923 35.5126 37.5 30.8286 37.5 25.3076C37.5 18.4036 31.9035 12.8076 25 12.8076V12.8081Z" fill="white"/>
</g>
<defs>
<clipPath id="clip0_3287_697">
<rect width="25" height="25" fill="white" transform="translate(12.5 12.5)"/>
</clipPath>
</defs>
</svg>
