<svg width="106" height="50" viewBox="0 0 106 50" fill="none" xmlns="http://www.w3.org/2000/svg">
<rect width="106" height="50" rx="12" fill="#444444"/>
<g clip-path="url(#clip0_2142_712)">
<path d="M24.5 12.3086C17.597 12.3086 12 17.9046 12 24.8086C12 30.3316 15.5815 35.0171 20.548 36.6696C21.1725 36.7851 21.4025 36.3986 21.4025 36.0681C21.4025 35.7701 21.391 34.7851 21.3855 33.7411C17.908 34.4971 17.174 32.2661 17.174 32.2661C16.6055 30.8216 15.786 30.4371 15.786 30.4371C14.652 29.6611 15.8715 29.6771 15.8715 29.6771C17.1265 29.7651 17.7875 30.9651 17.7875 30.9651C18.9025 32.8761 20.7115 32.3236 21.4255 32.0041C21.5375 31.1961 21.8615 30.6446 22.219 30.3326C19.4425 30.0166 16.524 28.9446 16.524 24.1551C16.524 22.7906 17.0125 21.6751 17.812 20.8001C17.682 20.4851 17.254 19.2141 17.933 17.4921C17.933 17.4921 18.983 17.1566 21.3715 18.7736C22.3685 18.4966 23.438 18.3576 24.5005 18.3526C25.5625 18.3576 26.6325 18.4961 27.6315 18.7736C30.0175 17.1561 31.0655 17.4921 31.0655 17.4921C31.746 19.2141 31.318 20.4851 31.1885 20.8001C31.99 21.6756 32.475 22.7906 32.475 24.1551C32.475 28.9561 29.5505 30.0131 26.767 30.3226C27.2155 30.7106 27.615 31.4711 27.615 32.6371C27.615 34.3096 27.6005 35.6556 27.6005 36.0676C27.6005 36.4001 27.8255 36.7901 28.459 36.6676C33.423 35.0131 37 30.3291 37 24.8081C37 17.9041 31.4035 12.3081 24.5 12.3081V12.3086Z" fill="white"/>
</g>
<path d="M45.98 20.004H47.52L52.63 27.438H52.686V20.004H54.212V30H52.728L47.562 22.482H47.506V30H45.98V20.004ZM57.0892 19.864C57.3832 19.864 57.6352 19.948 57.8312 20.144C58.0272 20.326 58.1252 20.564 58.1252 20.858C58.1252 21.152 58.0132 21.39 57.8172 21.586C57.6212 21.768 57.3692 21.866 57.0892 21.866C56.7952 21.866 56.5572 21.768 56.3612 21.586C56.1652 21.39 56.0672 21.138 56.0672 20.858C56.0672 20.564 56.1652 20.326 56.3612 20.144C56.5572 19.948 56.7952 19.864 57.0892 19.864ZM56.3472 22.762H57.8312V30H56.3472V22.762ZM63.508 22.566C65.3 22.566 66.21 23.546 66.21 25.534V30H64.726V25.66C64.726 24.428 64.152 23.812 63.032 23.812C62.612 23.812 62.234 23.952 61.926 24.26C61.59 24.596 61.38 25.058 61.324 25.646V30H59.84V22.762H61.324V23.658C61.604 23.294 61.926 23.028 62.29 22.846C62.654 22.65 63.06 22.566 63.508 22.566ZM71.3644 19.808C72.3724 19.808 73.1704 20.046 73.7864 20.536C74.3744 21.026 74.6824 21.698 74.6824 22.552C74.6824 23.644 74.1224 24.386 73.0304 24.75C73.6184 24.932 74.0664 25.212 74.3744 25.576C74.7104 25.954 74.8784 26.444 74.8784 27.032C74.8784 27.956 74.5564 28.712 73.9264 29.3C73.2544 29.888 72.3724 30.196 71.3084 30.196C70.2864 30.196 69.4604 29.93 68.8444 29.412C68.1444 28.824 67.7524 27.97 67.6684 26.85H69.2084C69.2364 27.522 69.4464 28.04 69.8664 28.404C70.2304 28.74 70.7064 28.908 71.2944 28.908C71.9384 28.908 72.4564 28.712 72.8484 28.348C73.1844 28.012 73.3664 27.606 73.3664 27.102C73.3664 26.514 73.1844 26.08 72.8204 25.8C72.4844 25.52 71.9804 25.38 71.3224 25.38H70.5944V24.232H71.3084C71.9244 24.232 72.3864 24.092 72.6944 23.826C73.0024 23.56 73.1704 23.168 73.1704 22.664C73.1704 22.16 73.0164 21.782 72.7364 21.516C72.4284 21.236 71.9664 21.11 71.3784 21.11C70.7764 21.11 70.3004 21.264 69.9644 21.572C69.6284 21.88 69.4184 22.342 69.3624 22.958H67.8644C67.9484 21.964 68.3124 21.194 68.9704 20.634C69.5864 20.074 70.3844 19.808 71.3644 19.808ZM76.4689 19.808H77.9529V30H76.4689V19.808ZM82.8669 22.566C84.0429 22.566 84.9529 22.958 85.5689 23.77C86.1289 24.498 86.4229 25.506 86.4369 26.794H80.9489C81.0049 27.494 81.1869 28.04 81.5229 28.418C81.8589 28.782 82.3209 28.978 82.9089 28.978C83.4269 28.978 83.8469 28.852 84.1689 28.614C84.4209 28.418 84.6309 28.096 84.8269 27.676H86.3109C86.1429 28.348 85.8209 28.922 85.3169 29.37C84.6869 29.916 83.8889 30.196 82.9229 30.196C81.8589 30.196 81.0049 29.86 80.3889 29.202C79.7169 28.502 79.3809 27.564 79.3809 26.374C79.3809 25.296 79.6889 24.4 80.3329 23.672C80.9489 22.93 81.8029 22.566 82.8669 22.566ZM82.9089 23.784C82.3489 23.784 81.9149 23.938 81.5789 24.274C81.2709 24.596 81.0609 25.058 80.9769 25.674H84.8829C84.7429 24.414 84.0849 23.784 82.9089 23.784ZM90.7693 22.566C91.9453 22.566 92.8553 22.958 93.4713 23.77C94.0313 24.498 94.3253 25.506 94.3393 26.794H88.8513C88.9073 27.494 89.0893 28.04 89.4253 28.418C89.7613 28.782 90.2233 28.978 90.8113 28.978C91.3293 28.978 91.7493 28.852 92.0713 28.614C92.3233 28.418 92.5333 28.096 92.7293 27.676H94.2133C94.0453 28.348 93.7233 28.922 93.2193 29.37C92.5893 29.916 91.7913 30.196 90.8253 30.196C89.7613 30.196 88.9073 29.86 88.2913 29.202C87.6193 28.502 87.2833 27.564 87.2833 26.374C87.2833 25.296 87.5913 24.4 88.2353 23.672C88.8513 22.93 89.7053 22.566 90.7693 22.566ZM90.8113 23.784C90.2513 23.784 89.8173 23.938 89.4813 24.274C89.1733 24.596 88.9633 25.058 88.8793 25.674H92.7853C92.6453 24.414 91.9873 23.784 90.8113 23.784Z" fill="white"/>
<defs>
<clipPath id="clip0_2142_712">
<rect width="25" height="25" fill="white" transform="translate(12 12)"/>
</clipPath>
</defs>
</svg>
