<svg width="30" height="30" viewBox="0 0 30 30" xmlns="http://www.w3.org/2000/svg">
<path d="M16.2349 23.7742L13.8391 21.3811C13.7631 21.3056 13.7028 21.2159 13.6616 21.1171C13.6205 21.0183 13.5993 20.9123 13.5993 20.8052C13.5993 20.6982 13.6205 20.5921 13.6616 20.4933C13.7028 20.3945 13.7631 20.3048 13.8391 20.2294C13.9145 20.1534 14.0042 20.0931 14.103 20.0519C14.2019 20.0107 14.3079 19.9896 14.4149 19.9896C14.522 19.9896 14.628 20.0107 14.7268 20.0519C14.8257 20.0931 14.9154 20.1534 14.9908 20.2294L17.4539 22.6924L18.5924 21.6885L16.062 19.1581C15.9861 19.0827 15.9257 18.993 15.8846 18.8942C15.8434 18.7953 15.8222 18.6893 15.8222 18.5823C15.8222 18.4752 15.8434 18.3692 15.8846 18.2704C15.9257 18.1715 15.9861 18.0818 16.062 18.0064C16.1375 17.9304 16.2272 17.8701 16.326 17.8289C16.4248 17.7878 16.5308 17.7666 16.6379 17.7666C16.745 17.7666 16.851 17.7878 16.9498 17.8289C17.0486 17.8701 17.1383 17.9304 17.2138 18.0064L19.818 20.6106L20.781 19.7663L18.1082 17.0948C18.0322 17.0194 17.9719 16.9297 17.9308 16.8308C17.8896 16.732 17.8684 16.626 17.8684 16.5189C17.8684 16.4119 17.8896 16.3059 17.9308 16.207C17.9719 16.1082 18.0322 16.0185 18.1082 15.9431C18.1836 15.8671 18.2733 15.8068 18.3722 15.7656C18.471 15.7245 18.577 15.7033 18.6841 15.7033C18.7911 15.7033 18.8971 15.7245 18.996 15.7656C19.0948 15.8068 19.1845 15.8671 19.2599 15.9431L22 18.6832C22.1768 18.5249 22.2942 18.4141 22.3298 18.3745C22.347 18.3586 23.1781 17.2874 22.4103 16.5196L16.8826 10.9919C16.4876 11.391 16.0806 11.7782 15.6623 12.1528C14.223 13.4167 11.9525 13.1133 10.3694 11.4497C10.2217 11.2968 10.1404 11.0917 10.1434 10.8791C10.1463 10.6665 10.2333 10.4638 10.3853 10.3151L13.186 7.51431C12.5159 7.06577 11.7942 6.72276 11.1847 6.42856C11.0278 6.34726 10.8676 6.27243 10.7045 6.20429L10.5607 6.12513C9.53829 5.61326 9.2652 5.56577 8.97761 5.85336L3.8127 11.0513C3.20584 11.6581 3.25333 12.0104 3.28499 12.3613C3.28499 12.3929 3.28499 12.4101 3.30082 12.4404C3.37998 12.6489 3.82853 13.1766 4.06863 13.4655C4.18077 13.6093 4.30874 13.7531 4.40505 13.8811C4.83644 14.4246 5.12404 14.9035 5.41164 15.385C5.86019 16.1357 6.27576 16.8389 7.21903 17.7821L13.7269 24.2914C13.9987 24.5631 14.351 24.7386 14.6874 24.7861C14.9262 24.8191 15.1346 24.7703 15.2467 24.6753C15.376 24.5447 15.719 24.2333 16.2335 23.7742H16.2349ZM23.8101 15.6476L26.0422 13.418C26.6979 12.761 26.186 11.9615 25.6254 11.4022L19.6306 5.40482C19.1504 4.92592 18.8153 4.79796 18.6227 4.76629C18.4789 4.74914 18.2718 4.74914 17.9842 5.03806L12.1795 10.8428C13.0264 11.3863 13.9868 11.4497 14.5937 10.922C15.6333 10.0117 17.1201 8.39558 17.1359 8.37975C17.2082 8.30057 17.2954 8.23649 17.3925 8.19121C17.4896 8.14592 17.5948 8.12033 17.7019 8.11592C17.809 8.1115 17.9159 8.12835 18.0164 8.16548C18.1169 8.20261 18.2091 8.25929 18.2876 8.33226C18.6227 8.63569 18.6399 9.14756 18.3351 9.48265L18.0185 9.82038L23.562 15.3692C23.6517 15.4589 23.7335 15.5539 23.8087 15.6502L23.8101 15.6476ZM14.3615 6.34149L16.8153 3.88767C17.9341 2.76761 19.4209 2.89558 20.781 4.25574L26.7771 10.2505C28.2322 11.7056 28.3919 13.3692 27.1926 14.5684L24.3576 17.4035C24.351 17.5605 24.3312 17.7188 24.2982 17.8784C24.1544 18.5816 23.7876 19.2214 23.4829 19.5249C23.3074 19.7016 22.2995 20.5803 20.5409 22.1317C18.8298 23.6357 16.7019 25.5064 16.3984 25.8098C16.0159 26.2096 15.4552 26.4338 14.8325 26.4338C14.7204 26.4338 14.5924 26.4338 14.4802 26.418C13.7584 26.3139 13.0903 25.9766 12.5779 25.4576L6.06863 18.9338C4.98156 17.8468 4.46969 16.9827 4.00663 16.232C3.73486 15.7834 3.47892 15.352 3.12668 14.9035C3.03038 14.7755 2.91824 14.6489 2.80742 14.5209C2.1346 13.7043 1.71903 13.1766 1.68739 12.6344C1.68739 12.6014 1.68739 12.5685 1.67156 12.5381C1.62407 12.0579 1.51193 11.05 2.66233 9.89956L7.86022 4.70165C9.02774 3.53542 10.4024 4.20561 11.314 4.66999L11.4592 4.73331C11.6016 4.79796 11.7626 4.87843 11.905 4.95759C12.6386 5.31774 13.5264 5.73991 14.3615 6.34017V6.34149Z" fill="evenodd"/>
</svg>
