<svg width="57" height="30" viewBox="0 0 57 30" xmlns="http://www.w3.org/2000/svg">
<path d="M0.26 23L3.38 5.84H8.97L13.026 17.644L15.184 5.84L18.07 5.866L14.898 23H8.944L5.2 11.638L3.12 23H0.26ZM24.9632 21.57C24.4259 22.87 23.2993 23.52 21.5833 23.52C20.6993 23.52 19.9799 23.2167 19.4253 22.61C18.9573 22.0727 18.7233 21.5353 18.7233 20.998C18.7233 19.594 19.0439 17.5227 19.6853 14.784L20.6473 9.74L25.9252 9.22L24.3393 17.436C24.0446 18.7187 23.8973 19.5853 23.8973 20.036C23.8973 21.024 24.2526 21.5353 24.9632 21.57ZM21.1153 6.126C21.1153 5.45 21.3926 4.93 21.9473 4.566C22.5193 4.202 23.2126 4.02 24.0273 4.02C24.8419 4.02 25.4919 4.202 25.9773 4.566C26.4799 4.93 26.7313 5.45 26.7313 6.126C26.7313 6.802 26.4539 7.31333 25.8993 7.66C25.3619 8.00667 24.6859 8.18 23.8713 8.18C23.0566 8.18 22.3893 8.00667 21.8693 7.66C21.3666 7.31333 21.1153 6.802 21.1153 6.126ZM38.1763 23.52C36.079 23.52 35.0303 22.7053 35.0303 21.076C35.0477 20.6253 35.1257 20.0187 35.2643 19.256L35.7323 16.864C36.2003 14.6107 36.4343 13.2327 36.4343 12.73C36.4343 11.7247 36.1397 11.222 35.5503 11.222C34.5623 11.222 33.8083 12.5133 33.2883 15.096L31.7543 23L26.5283 23.52L29.2323 9.714L33.4963 9.22L33.0803 11.768C33.895 10.0693 35.5503 9.22 38.0463 9.22C39.2597 9.22 40.1177 9.48 40.6203 10C41.1403 10.5027 41.4003 11.326 41.4003 12.47C41.4003 13.5447 41.123 15.3387 40.5683 17.852C40.3083 18.9787 40.1783 19.7587 40.1783 20.192C40.1783 20.608 40.291 20.9373 40.5163 21.18C40.759 21.4227 41.0537 21.5613 41.4003 21.596C41.227 22.1853 40.837 22.6533 40.2303 23C39.641 23.3467 38.9563 23.52 38.1763 23.52ZM51.9031 13.614C54.1911 14.2033 55.3351 15.616 55.3351 17.852C55.3351 19.464 54.6504 20.7987 53.2811 21.856C51.8251 22.9653 49.9011 23.52 47.5091 23.52C46.0878 23.52 44.9524 23.2513 44.1031 22.714C43.2538 22.1593 42.8291 21.4313 42.8291 20.53C42.8291 19.6287 43.1671 18.9007 43.8431 18.346C44.1898 18.9873 44.6664 19.4553 45.2731 19.75C45.8971 20.0447 46.5991 20.192 47.3791 20.192C48.1764 20.192 48.8264 19.984 49.3291 19.568C49.8318 19.152 50.0831 18.5367 50.0831 17.722C50.0831 16.1793 49.0258 15.408 46.9111 15.408L47.3531 13.068C49.8838 12.652 51.1491 11.82 51.1491 10.572C51.1491 10.0693 50.9758 9.67933 50.6291 9.402C50.2824 9.12467 49.7798 8.986 49.1211 8.986C47.9598 8.986 46.8678 9.52333 45.8451 10.598C45.5158 10.5113 45.2818 10.3553 45.1431 10.13C45.0044 9.88733 44.9351 9.52333 44.9351 9.038C44.9351 8.55267 45.1084 8.08467 45.4551 7.634C45.8018 7.166 46.2784 6.75867 46.8851 6.412C48.1851 5.684 49.7104 5.32 51.4611 5.32C52.7958 5.32 53.8878 5.66667 54.7371 6.36C55.6211 7.07067 56.0631 7.95467 56.0631 9.012C56.0631 9.96533 55.6818 10.858 54.9191 11.69C54.1564 12.522 53.1511 13.1633 51.9031 13.614Z" fill="evenodd"/>
</svg>
