<svg width="512" height="512" viewBox="0 0 512 512" xmlns="http://www.w3.org/2000/svg">
<path d="M255.6 8C395.4 8 504 115.9 504 256C504 403.2 385.5 504 255.6 504C121.1 504 8 393.2 8 256C8 123.1 112.7 8 255.6 8ZM63.8 189.1C56.4 209.5 52.7 231.8 52.7 256C52.7 366.9 144.8 458.4 256.4 458.4C378.8 458.4 433.6 356.6 434.9 354.3L341.5 312.7C333.8 349.8 300.3 365.7 273.3 368.1V406.2H244.5V368C217 367.7 191.9 357.8 169.2 338.3L203.3 303.8C235 333.2 289.7 335.6 289.7 301.6C289.7 295.4 287.5 290.4 283.1 286.5C268.9 280.5 281.3 286.4 63.8 189.1ZM256.4 52.3C218 52.3 144 61 85.9 145.3L180.7 187.8C190.7 156.5 221.1 144.9 244.5 143.5V105.4H273.3V143.5C296 144.7 316.7 152.4 335.3 166.5L303 199.7C260.3 169.8 219.5 191.7 233 210.8C286.4 234.9 276.8 230.6 326 252.4L453.1 309.1C457.2 291.7 459.3 274 459.3 256C459.3 199 439.5 151 400 112.1C360.7 72.2 312.8 52.3 256.4 52.3Z" fill="evenodd"/>
</svg>
