<svg width="50" height="50" viewBox="0 0 50 50" fill="none" xmlns="http://www.w3.org/2000/svg">
<rect width="50" height="50" rx="12" fill="url(#paint0_linear_2142_727)"/>
<path d="M24.5 7C14.875 7 7 14.875 7 24.5C7 34.125 14.875 42 24.5 42C34.125 42 42 34.125 42 24.5C42 14.875 34.2125 7 24.5 7Z" fill="#1ED75F"/>
<path d="M32.5501 32.2875C32.2001 32.8125 31.5876 32.9875 31.0626 32.6375C26.9501 30.1 21.7876 29.575 15.6626 30.975C15.0501 31.15 14.5251 30.7125 14.3501 30.1875C14.1751 29.575 14.6126 29.05 15.1376 28.875C21.7876 27.3875 27.5626 28 32.1126 30.8C32.7251 31.0625 32.8126 31.7625 32.5501 32.2875ZM34.6501 27.475C34.2126 28.0875 33.4251 28.35 32.8126 27.9125C28.0876 25.025 20.9126 24.15 15.4001 25.9C14.7001 26.075 13.9126 25.725 13.7376 25.025C13.5626 24.325 13.9126 23.5375 14.6126 23.3625C21.0001 21.4375 28.8751 22.4 34.3001 25.725C34.8251 25.9875 35.0876 26.8625 34.6501 27.475ZM34.8251 22.575C29.2251 19.25 19.8626 18.9 14.5251 20.5625C13.6501 20.825 12.7751 20.3 12.5126 19.5125C12.2501 18.6375 12.7751 17.7625 13.5626 17.5C19.7751 15.6625 30.0126 16.0125 36.4876 19.8625C37.2751 20.3 37.5376 21.35 37.1001 22.1375C36.6626 22.75 35.6126 23.0125 34.8251 22.575Z" fill="#191515"/>
<defs>
<linearGradient id="paint0_linear_2142_727" x1="0" y1="0" x2="50" y2="50" gradientUnits="userSpaceOnUse">
<stop offset="0.531608" stop-color="#0A5022"/>
<stop offset="1" stop-color="#111111"/>
</linearGradient>
</defs>
</svg>
