<svg width="50" height="50" viewBox="0 0 50 50" fill="none" xmlns="http://www.w3.org/2000/svg">
<rect width="50" height="50" rx="12" fill="url(#paint0_linear_2142_692)"/>
<path fill-rule="evenodd" clip-rule="evenodd" d="M14.002 30.2173L16.8018 31.3403C16.8896 31.7441 17.0244 32.1196 17.207 32.4663C17.4756 32.9771 17.8477 33.4258 18.3223 33.813C19.1201 34.4629 20.0332 34.7886 21.0645 34.79C22.1934 34.79 23.1748 34.4102 24.0098 33.6504C24.8438 32.8906 25.3164 31.9521 25.4258 30.834L31.04 26.7324C32.668 26.7324 34.0537 26.1602 35.1982 25.0156C36.3428 23.8716 36.915 22.4912 36.915 20.8745C36.915 19.2466 36.3428 17.8608 35.1982 16.7163C34.0537 15.5723 32.668 15 31.04 15C29.4346 15 28.0625 15.5664 26.9219 16.6997C25.7812 17.833 25.2012 19.2031 25.1807 20.8101L21.5186 26.0513C21.4209 26.04 21.2686 26.0347 21.0615 26.0347C20.248 26.0347 19.5049 26.2354 18.833 26.6362L14 24.6992L14.002 30.2173ZM21.0664 33.6338C21.9561 33.6353 22.7158 33.3232 23.3447 32.6982C23.9746 32.0737 24.2891 31.311 24.2891 30.4111C24.2842 29.5078 23.9697 28.7451 23.3408 28.1216C22.7119 27.498 21.9521 27.1865 21.0615 27.1865C20.8457 27.1865 20.6172 27.2134 20.3789 27.2676L21.7139 27.8052C22.376 28.0664 22.8457 28.522 23.1221 29.1719C23.3984 29.8218 23.4072 30.4722 23.1475 31.1235C22.875 31.7861 22.4141 32.2554 21.7637 32.5317C21.1143 32.8081 20.4629 32.8164 19.8125 32.5566C19.3125 32.3403 18.7803 32.1235 18.2168 31.9067C18.4883 32.4277 18.8799 32.8457 19.3887 33.1611C19.8984 33.4761 20.458 33.6338 21.0664 33.6338ZM33.8232 23.6494C34.5938 22.8838 34.9795 21.959 34.9795 20.8745C34.9795 19.7788 34.5967 18.8481 33.832 18.083C33.0664 17.3179 32.1357 16.9351 31.04 16.9351C30.2529 16.9351 29.5498 17.1382 28.9307 17.5444C28.6973 17.6978 28.4756 17.8799 28.2656 18.0913C27.5 18.8623 27.1172 19.79 27.1172 20.8745C27.1172 21.481 27.2363 22.0376 27.4766 22.5444C27.665 22.9438 27.9287 23.312 28.2656 23.6494C29.0303 24.4146 29.9561 24.7969 31.04 24.7969C32.125 24.7969 33.0527 24.4146 33.8232 23.6494Z" fill="white"/>
<path d="M34.2148 20.8433C34.2148 19.9751 33.9062 19.2349 33.2881 18.6226C32.6699 18.0103 31.9268 17.7041 31.0586 17.7041C30.1914 17.7041 29.4512 18.0127 28.8379 18.6309C28.2256 19.249 27.9199 19.9863 27.9199 20.8433C27.9199 21.2861 28 21.6953 28.1592 22.0713C28.3115 22.4326 28.5381 22.7637 28.8379 23.064C29.4512 23.6763 30.1914 23.9824 31.0586 23.9824C31.9268 23.9824 32.6699 23.6763 33.2881 23.064C33.9062 22.4512 34.2148 21.7114 34.2148 20.8433Z" fill="white"/>
<defs>
<linearGradient id="paint0_linear_2142_692" x1="0" y1="0" x2="50" y2="50" gradientUnits="userSpaceOnUse">
<stop stop-color="#1A2160"/>
<stop offset="1" stop-color="#1B75BF"/>
</linearGradient>
</defs>
</svg>
