<svg width="50" height="50" viewBox="0 0 50 50" fill="none" xmlns="http://www.w3.org/2000/svg">
<rect width="50" height="50" rx="12" fill="#EA3E3C"/>
<g clip-path="url(#clip0_2142_691)">
<path d="M26.7667 37H30.5938C34.1104 37 37 34.1104 37 30.5938V18.4062C37 14.8906 34.1104 12 30.5938 12H26.6875C26.6104 12 26.5312 12.0771 26.5312 12.1562V36.8438C26.5302 36.9229 26.6094 37 26.7667 37ZM31.5312 23.251C32.9385 23.251 34.0302 24.4229 34.0302 25.749C34.0302 27.1573 32.8583 28.249 31.5312 28.249C30.125 28.249 29.0312 27.1562 29.0312 25.749C28.9531 24.3438 30.125 23.251 31.5312 23.251ZM23.875 12H18.4062C14.8906 12 12 14.8906 12 18.4062V30.5938C12 34.1104 14.8906 37 18.4062 37H23.875C23.9521 37 24.0312 36.9229 24.0312 36.8448V12.1562C24.0323 12.0771 23.9531 12 23.875 12ZM22.0792 34.9698H18.4062C17.8313 34.9708 17.2618 34.8582 16.7305 34.6386C16.1991 34.4191 15.7163 34.0968 15.3098 33.6902C14.9032 33.2837 14.5809 32.8009 14.3614 32.2695C14.1418 31.7382 14.0292 31.1687 14.0302 30.5938V18.4062C14.0292 17.8313 14.1418 17.2618 14.3614 16.7305C14.5809 16.1991 14.9032 15.7163 15.3098 15.3098C15.7163 14.9032 16.1991 14.5809 16.7305 14.3614C17.2618 14.1418 17.8313 14.0292 18.4062 14.0302H22L22.0792 34.9698ZM15.9062 19.499C15.9062 20.8271 16.9219 21.8427 18.25 21.8427C19.5781 21.8427 20.5938 20.8271 20.5938 19.499C20.5938 18.1729 19.5781 17.1552 18.25 17.1552C16.9219 17.1552 15.9062 18.1729 15.9062 19.499Z" fill="white"/>
</g>
<defs>
<clipPath id="clip0_2142_691">
<rect width="25" height="25" fill="white" transform="translate(12 12)"/>
</clipPath>
</defs>
</svg>
