<svg width="30" height="30" viewBox="0 0 30 30" xmlns="http://www.w3.org/2000/svg">
<path d="M14.997 27.0328C14.0711 27.0328 13.1996 26.9239 12.3281 26.706C11.2933 26.4881 10.3129 26.1069 9.38697 25.6167C9.1691 25.5622 8.02531 25.6167 5.30201 26.3792C4.81181 26.5426 4.32161 26.3792 3.94035 25.9979C3.61355 25.6167 3.45016 25.1265 3.61355 24.6363C4.43055 22.0764 4.53948 20.9871 4.43055 20.7147C3.88589 19.7343 3.50462 18.645 3.23229 17.5557C3.01443 16.6842 2.95996 15.8128 2.95996 14.9413C2.95996 8.29645 8.35211 2.9043 14.9425 2.9043H15.5961C21.7508 3.34003 26.5983 8.24198 26.9795 14.3422C27.3608 20.9871 22.241 26.6515 15.6506 26.9783C15.4327 26.9783 15.2148 27.0328 14.997 27.0328ZM9.11464 23.9827C9.44143 23.9827 9.8227 24.0372 10.095 24.2006C10.912 24.6363 11.729 24.9631 12.6005 25.1265C13.363 25.2899 14.1255 25.3988 14.9425 25.3988C20.6615 25.3988 25.2911 20.8237 25.3456 15.1047V14.4511C25.0188 9.16791 20.8249 4.97401 15.5416 4.64721C9.8227 4.26595 4.97521 8.67771 4.64841 14.3422V14.9958C4.64841 16.7387 5.08414 18.4816 5.9556 20.0067C6.119 20.3335 6.50026 20.9871 5.35647 24.6908C6.55473 24.255 7.86192 24.0372 9.11464 23.9827Z" fill="evenodd"/>
<path d="M19.3548 14.07H10.6402C10.2045 14.07 9.82324 13.6888 9.82324 13.253C9.82324 12.8173 10.2045 12.436 10.6402 12.436H19.3548C19.7906 12.436 20.1718 12.8173 20.1718 13.253C20.1718 13.6888 19.7906 14.07 19.3548 14.07ZM19.3548 17.5559H10.6402C10.2045 17.5559 9.82324 17.1746 9.82324 16.7389C9.82324 16.3031 10.2045 15.9219 10.6402 15.9219H19.3548C19.7906 15.9219 20.1718 16.3031 20.1718 16.7389C20.1718 17.1746 19.7906 17.5559 19.3548 17.5559Z" fill="evenodd"/>
<path d="M15.8692 20.1704C15.4335 20.1704 15.0522 19.7892 15.0522 19.3534V19.19L16.7952 10.4754C16.9041 10.0397 17.3398 9.76738 17.7755 9.82185C18.2113 9.87631 18.4836 10.3665 18.4291 10.8022L16.6862 19.5168C16.5773 19.8981 16.2505 20.1704 15.8692 20.1704ZM12.3834 20.1704C11.9477 20.1704 11.5664 19.7892 11.5664 19.3534V19.19L13.3093 10.4754C13.4183 10.0397 13.854 9.76738 14.2897 9.82185C14.7254 9.87631 14.9978 10.3665 14.9433 10.8022L13.2004 19.5168C13.0915 19.8981 12.7647 20.1704 12.3834 20.1704Z" fill="evenodd"/>
</svg>
