<svg width="100" height="100" viewBox="0 0 100 100" xmlns="http://www.w3.org/2000/svg">
<path fill-rule="evenodd" clip-rule="evenodd" d="M50 100C77.6143 100 100 77.6143 100 50C100 22.3857 77.6143 0 50 0C22.3857 0 0 22.3857 0 50C0 77.6143 22.3857 100 50 100ZM32.502 43C34.8359 33.667 40.6689 29 50.002 29C58.6797 29 62.6494 33.0312 66.0791 36.5137C68.1875 38.6543 70.0898 40.585 72.752 41.25C77.4189 42.417 81.502 40.667 85.002 36C82.6689 45.333 76.8359 50 67.502 50C58.832 50 54.8623 45.9727 51.4316 42.4922L51.4258 42.4863C49.3164 40.3457 47.415 38.415 44.752 37.75C40.0859 36.583 36.002 38.333 32.502 43ZM15.002 64C17.3359 54.667 23.1689 50 32.502 50C41.1797 50 45.1494 54.0312 48.5791 57.5137C50.6875 59.6543 52.5898 61.585 55.252 62.25C59.9189 63.417 64.002 61.667 67.502 57C65.1689 66.333 59.3359 71 50.002 71C41.3281 71 37.3584 66.9688 33.9258 63.4863C31.8164 61.3457 29.915 59.415 27.252 58.75C22.5859 57.583 18.502 59.333 15.002 64Z"/>
</svg>
