<svg width="100" height="100" viewBox="0 0 100 100" fill="none" xmlns="http://www.w3.org/2000/svg">
<path d="M31.6197 73.7824H30.8644L27.0938 70.0117V69.2564L32.8581 63.4922H36.8516L37.384 64.0246V68.0181L31.6197 73.7824Z" />
<path d="M27.0938 31.1354V30.38L30.8644 26.6094H31.6197L37.384 32.3736V36.3671L36.8516 36.8996H32.8581L27.0938 31.1354Z" />
<path d="M60.2863 61.6274H54.8007L54.3425 61.1693V48.3282C54.3425 46.0436 53.4448 44.2727 50.6896 44.2109C49.2717 44.1737 47.6495 44.2109 45.916 44.2789L45.6559 44.5452V61.1631L45.1977 61.6212H39.7121L39.2539 61.1631V39.2267L39.7121 38.7686H52.0579C56.8563 38.7686 60.7445 42.6568 60.7445 47.4552V61.1693L60.2863 61.6274Z"/>
<path d="M32.4008 53.4056H10.4582L10 52.9474V47.4494L10.4582 46.9912H32.4008L32.8589 47.4494V52.9474L32.4008 53.4056Z" />
<path d="M89.5474 53.4056H67.6047L67.1465 52.9474V47.4494L67.6047 46.9912H89.5474L90.0055 47.4494V52.9474L89.5474 53.4056Z" />
<path d="M46.8398 31.9151V15.4582L47.298 15H52.796L53.2542 15.4582V31.9151L52.796 32.3732H47.298L46.8398 31.9151Z" />
<path d="M46.8398 84.9384V68.4816L47.298 68.0234H52.796L53.2542 68.4816V84.9384L52.796 85.3966H47.298L46.8398 84.9384Z" />
</svg>
