<svg width="100" height="100" viewBox="0 0 100 100" fill="none" xmlns="http://www.w3.org/2000/svg">
<g clip-path="url(#clip0_9433_631)">
<path d="M50.0615 20.8359C33.4016 20.8359 20 34.3605 20 51.0818C20 64.4835 28.6066 75.795 40.5328 79.7909C42.0082 80.0982 42.5615 79.1146 42.5615 78.3154C42.5615 77.6392 42.5 75.1802 42.5 72.7212C34.1393 74.504 32.418 69.0941 32.418 69.0941C31.0656 65.59 29.0984 64.6679 29.0984 64.6679C26.3934 62.8236 29.2828 62.8236 29.2828 62.8236C32.2951 63.0081 33.8934 65.9589 33.8934 65.9589C36.5984 70.5695 40.9016 69.2786 42.623 68.4794C42.8689 66.5122 43.668 65.1597 44.5287 64.422C37.8893 63.7458 30.8811 61.1023 30.8811 49.4835C30.8811 46.1638 32.0492 43.4589 33.9549 41.3687C33.6475 40.631 32.6025 37.4958 34.2623 33.3769C34.2623 33.3769 36.7828 32.5777 42.5 36.5122C44.8975 35.8359 47.4795 35.5286 50 35.5286C52.5205 35.5286 55.1025 35.8974 57.5 36.5122C63.2172 32.5777 65.7377 33.3769 65.7377 33.3769C67.3975 37.5573 66.3525 40.631 66.0451 41.3687C68.0123 43.4589 69.1189 46.1638 69.1189 49.4835C69.1189 61.1023 62.1107 63.6843 55.4098 64.422C56.5164 65.3441 57.4385 67.1884 57.4385 70.0163C57.4385 74.0736 57.3771 77.3318 57.3771 78.3154C57.3771 79.1146 57.9303 80.0982 59.4057 79.7909C71.3934 75.795 80 64.4835 80 51.0818C80.0615 34.3605 66.5984 20.8359 50.0615 20.8359Z"/>
</g>
<defs>
<clipPath id="clip0_9433_631">
<rect width="60" height="59.0164" fill="white" transform="translate(20 20.8359)"/>
</clipPath>
</defs>
</svg>
