<svg width="100" height="100" viewBox="0 0 100 100" fill="none" xmlns="http://www.w3.org/2000/svg">
<path fill-rule="evenodd" clip-rule="evenodd" d="M50 31.167C42 31.167 37 35.167 35 43.167C38 39.167 41.5 37.667 45.5 38.667C47.7822 39.237 49.4133 40.8937 51.2189 42.7259C54.16 45.7114 57.5644 49.167 65 49.167C73 49.167 78 45.167 80 37.167C77 41.167 73.5 42.667 69.5 41.667C67.2178 41.097 65.5867 39.4403 63.7811 37.6081C60.84 34.6225 57.4356 31.167 50 31.167ZM35 49.167C27 49.167 22 53.167 20 61.167C23 57.167 26.5 55.667 30.5 56.667C32.7822 57.2381 34.4133 58.8937 36.2189 60.7259C39.16 63.7114 42.5644 67.167 50 67.167C58 67.167 63 63.167 65 55.167C62 59.167 58.5 60.667 54.5 59.667C52.2178 59.097 50.5867 57.4403 48.7811 55.6081C45.84 52.6225 42.4356 49.167 35 49.167Z"/>
</svg>
