<svg width="100" height="100" viewBox="0 0 100 100" fill="none" xmlns="http://www.w3.org/2000/svg">
<path d="M70 30C70 35.5228 65.5228 40 60 40H50V20L60 20C65.5228 20 70 24.4772 70 30V30Z" stroke="#7C7C7C" stroke-width="4"/>
<path d="M30 30C30 35.5228 34.4772 40 40 40H50V20L40 20C34.4772 20 30 24.4772 30 30V30Z" stroke="#7C7C7C" stroke-width="4"/>
<path d="M30 50C30 55.5228 34.4772 60 40 60H50V40H40C34.4772 40 30 44.4772 30 50V50Z" stroke="#7C7C7C" stroke-width="4"/>
<path d="M30 70C30 75.5228 34.4772 80 40 80V80C45.5228 80 50 75.5228 50 70V60H40C34.4772 60 30 64.4772 30 70V70Z" stroke="#7C7C7C" stroke-width="4"/>
<path d="M50 50C50 55.5228 54.4772 60 60 60V60C65.5228 60 70 55.5228 70 50V50C70 44.4772 65.5228 40 60 40V40C54.4772 40 50 44.4772 50 50V50Z" stroke="#7C7C7C" stroke-width="4"/>
</svg>
