<svg width="100" height="100" viewBox="0 0 100 100" fill="none" xmlns="http://www.w3.org/2000/svg">
<path d="M41.6401 70.8688C38.9296 68.391 38.1383 63.1848 39.2676 59.4131C41.2257 61.7911 43.9389 62.5444 46.7492 62.9696C51.0877 63.6258 55.3484 63.3804 59.3787 61.3974C59.8398 61.1704 60.2659 60.8685 60.7696 60.5627C61.1478 61.6599 61.2462 62.7675 61.1141 63.8948C60.793 66.6403 59.4267 68.7611 57.2535 70.3687C56.3845 71.0118 55.465 71.5866 54.5675 72.1929C51.8104 74.0565 51.0644 76.2416 52.1004 79.4199C52.125 79.4978 52.1471 79.5752 52.2028 79.7642C50.795 79.1339 49.7667 78.2165 48.9832 77.0104C48.1556 75.7376 47.7619 74.3295 47.7412 72.8058C47.7309 72.0643 47.7309 71.3162 47.6312 70.5853C47.3877 68.8031 46.551 68.0051 44.975 67.9592C43.3574 67.912 42.0779 68.912 41.7386 70.4868C41.7127 70.6076 41.6751 70.727 41.6375 70.8674L41.6401 70.8688Z" fill="#7C7C7C"/>
<path d="M26.168 58.7847C26.168 58.7847 34.1945 54.8746 42.2434 54.8746L48.312 36.0934C48.5392 35.1851 49.2025 34.5678 49.9515 34.5678C50.7004 34.5678 51.3638 35.1851 51.591 36.0934L57.6596 54.8746C67.1923 54.8746 73.735 58.7847 73.735 58.7847C73.735 58.7847 60.1013 21.644 60.0747 21.5695C59.6834 20.4714 59.0228 19.7642 58.1322 19.7642H41.7721C40.8815 19.7642 40.2476 20.4714 39.8297 21.5695C39.8002 21.6426 26.168 58.7847 26.168 58.7847Z" fill="#7C7C7C"/>
</svg>
