<svg width="100" height="100" viewBox="0 0 100 100" fill="none" xmlns="http://www.w3.org/2000/svg">
<path d="M31.6197 73.7819H30.8644L27.0938 70.0113V69.2559L32.8581 63.4917H36.8516L37.384 64.0241V68.0176L31.6197 73.7819Z" fill="#7C7C7C"/>
<path d="M27.0938 31.1349V30.3795L30.8644 26.6089H31.6197L37.384 32.3731V36.3666L36.8516 36.8991H32.8581L27.0938 31.1349Z" fill="#7C7C7C"/>
<path d="M60.2863 61.6279H54.8007L54.3425 61.1698V48.3287C54.3425 46.044 53.4448 44.2732 50.6896 44.2114C49.2717 44.1742 47.6495 44.2114 45.916 44.2794L45.6559 44.5457V61.1636L45.1977 61.6217H39.7121L39.2539 61.1636V39.2272L39.7121 38.769H52.0579C56.8563 38.769 60.7445 42.6573 60.7445 47.4557V61.1698L60.2863 61.6279Z" fill="#7C7C7C"/>
<path d="M32.4008 53.4061H10.4582L10 52.9479V47.4499L10.4582 46.9917H32.4008L32.8589 47.4499V52.9479L32.4008 53.4061Z" fill="#7C7C7C"/>
<path d="M89.5474 53.4061H67.6047L67.1465 52.9479V47.4499L67.6047 46.9917H89.5474L90.0055 47.4499V52.9479L89.5474 53.4061Z" fill="#7C7C7C"/>
<path d="M46.8398 31.9151V15.4582L47.298 15H52.796L53.2542 15.4582V31.9151L52.796 32.3732H47.298L46.8398 31.9151Z" fill="#7C7C7C"/>
<path d="M46.8398 84.9384V68.4816L47.298 68.0234H52.796L53.2542 68.4816V84.9384L52.796 85.3966H47.298L46.8398 84.9384Z" fill="#7C7C7C"/>
</svg>
