<svg width="100" height="100" viewBox="0 0 100 100" fill="none" xmlns="http://www.w3.org/2000/svg">
<path d="M60.0002 40.834H75.0003V35.834H60.0002V40.834ZM61.9352 49.6841C60.9102 50.5816 60.2652 51.7991 60.0002 53.3341H72.5003C72.3678 51.6941 71.7178 50.4566 70.5703 49.6041C69.4053 48.7541 67.9753 48.3341 66.2628 48.3341C64.4077 48.3341 62.9577 48.7841 61.9352 49.6841ZM72.7503 44.549C74.6757 45.3494 76.3349 46.6791 77.5353 48.3841C78.6803 49.9266 79.4153 51.7141 79.7503 53.7466C79.9478 54.9341 80.0253 56.6541 79.9928 58.8941H59.7927C59.9177 61.4916 60.8727 63.3166 62.6977 64.3592C63.8027 65.0092 65.1327 65.3367 66.6978 65.3367C68.3403 65.3367 69.6853 64.9417 70.7153 64.1492C71.2828 63.7192 71.7828 63.1241 72.2103 62.3666H79.6103C79.4153 63.8992 78.5178 65.4667 76.9253 67.0517C74.4428 69.5742 70.9653 70.8342 66.4953 70.8342C62.8052 70.8342 59.5477 69.7742 56.7352 67.6442C53.9052 65.5192 52.5002 62.0566 52.5002 57.2691C52.5002 52.7741 53.7752 49.3291 56.3177 46.9291C58.8677 44.539 62.1677 43.334 66.2253 43.334C68.6403 43.334 70.8128 43.7415 72.7478 44.5515L72.7503 44.549ZM27.5 53.3341V63.3341H36.3851C37.9726 63.3341 39.2126 63.1141 40.0951 62.6741C41.7001 61.8541 42.5001 60.2991 42.5001 57.9941C42.5001 56.0391 41.7251 54.7016 40.1701 53.9691C39.3001 53.5616 38.0776 53.3491 36.5101 53.3341H27.5ZM27.5 40.834V48.3341H36.8626C38.5301 48.3341 39.8876 48.0516 40.9376 47.4891C41.9751 46.9266 42.5001 45.9341 42.5001 44.509C42.5001 42.919 41.8126 41.8765 40.4351 41.364C39.2401 41.014 37.7226 40.834 35.8801 40.834H27.5ZM47.1526 37.329C48.2702 38.924 48.8302 40.829 48.8302 43.054C48.8302 45.3416 48.2702 47.1841 47.1401 48.5791C46.5051 49.3541 45.5776 50.0691 44.3476 50.7116C46.2151 51.4116 47.6202 52.5116 48.5777 54.0216C49.5227 55.5266 50.0002 57.3616 50.0002 59.5166C50.0002 61.7391 49.4577 63.7342 48.3677 65.4967C47.6802 66.6642 46.8176 67.6467 45.7801 68.4467C44.5663 69.385 43.152 70.0301 41.6476 70.3317C39.9475 70.6797 38.2154 70.8482 36.4801 70.8342H20V33.334H37.6751C42.1351 33.4015 45.2926 34.734 47.1526 37.329Z"/>
</svg>
