<svg width="24" height="24" viewBox="0 0 24 24" fill="none" xmlns="http://www.w3.org/2000/svg">
<path d="M15.8502 8.14C16.2402 8.14 16.6202 8.17 16.9902 8.22C16.3102 5.25 13.1902 3 9.44023 3C5.19023 3 1.74023 5.88 1.74023 9.43C1.74023 11.48 2.89023 13.29 4.68023 14.47L3.67023 16.5L6.43023 15.31C7.02023 15.52 7.64023 15.69 8.30023 15.78C8.21023 15.39 8.16023 14.99 8.16023 14.57C8.15023 11.03 11.6002 8.14 15.8502 8.14ZM12.0002 5.89C12.1263 5.89 12.2511 5.91483 12.3676 5.96308C12.4841 6.01132 12.5899 6.08203 12.6791 6.17118C12.7682 6.26032 12.8389 6.36615 12.8872 6.48262C12.9354 6.5991 12.9602 6.72393 12.9602 6.85C12.9602 6.97607 12.9354 7.1009 12.8872 7.21738C12.8389 7.33385 12.7682 7.43968 12.6791 7.52882C12.5899 7.61797 12.4841 7.68868 12.3676 7.73692C12.2511 7.78517 12.1263 7.81 12.0002 7.81C11.7456 7.81 11.5014 7.70886 11.3214 7.52882C11.1414 7.34879 11.0402 7.10461 11.0402 6.85C11.0402 6.59539 11.1414 6.35121 11.3214 6.17118C11.5014 5.99114 11.7456 5.89 12.0002 5.89ZM6.87023 7.82C6.61563 7.82 6.37145 7.71886 6.19141 7.53882C6.01138 7.35879 5.91023 7.11461 5.91023 6.86C5.91023 6.60539 6.01138 6.36121 6.19141 6.18118C6.37145 6.00114 6.61563 5.9 6.87023 5.9C7.12484 5.9 7.36902 6.00114 7.54906 6.18118C7.72909 6.36121 7.83023 6.60539 7.83023 6.86C7.83023 7.11461 7.72909 7.35879 7.54906 7.53882C7.36902 7.71886 7.12484 7.82 6.87023 7.82Z" fill="white"/>
<path d="M22.2604 14.5702C22.2604 11.7302 19.3904 9.43018 15.8504 9.43018C12.3104 9.43018 9.44043 11.7302 9.44043 14.5702C9.44043 17.4102 12.3104 19.7102 15.8504 19.7102C16.4304 19.7102 16.9904 19.6302 17.5204 19.5102L20.9804 21.0002L19.7804 18.6002C21.2804 17.6602 22.2604 16.2202 22.2604 14.5702ZM13.9204 14.2502C13.7306 14.2502 13.545 14.1939 13.3871 14.0884C13.2292 13.9829 13.1062 13.833 13.0335 13.6576C12.9608 13.4821 12.9418 13.2891 12.9789 13.1029C13.0159 12.9167 13.1073 12.7456 13.2416 12.6114C13.3759 12.4771 13.5469 12.3857 13.7331 12.3486C13.9194 12.3116 14.1124 12.3306 14.2878 12.4033C14.4632 12.4759 14.6132 12.599 14.7186 12.7568C14.8241 12.9147 14.8804 13.1003 14.8804 13.2902C14.8904 13.8202 14.4504 14.2502 13.9204 14.2502ZM17.7704 14.2502C17.5158 14.2502 17.2716 14.149 17.0916 13.969C16.9116 13.789 16.8104 13.5448 16.8104 13.2902C16.8104 13.0356 16.9116 12.7914 17.0916 12.6114C17.2716 12.4313 17.5158 12.3302 17.7704 12.3302C18.025 12.3302 18.2692 12.4313 18.4493 12.6114C18.6293 12.7914 18.7304 13.0356 18.7304 13.2902C18.7304 13.5448 18.6293 13.789 18.4493 13.969C18.2692 14.149 18.025 14.2502 17.7704 14.2502Z" fill="white"/>
</svg>
